<svg width="13" height="15" viewBox="0 0 13 15" xmlns="http://www.w3.org/2000/svg">
<path d="M0 13.4375C0 14.1758 0.574219 14.75 1.3125 14.75H10.9375C11.6484 14.75 12.25 14.1758 12.25 13.4375V6H0V13.4375ZM8.75 8.07812C8.75 7.91406 8.88672 7.75 9.07812 7.75H10.1719C10.3359 7.75 10.5 7.91406 10.5 8.07812V9.17188C10.5 9.36328 10.3359 9.5 10.1719 9.5H9.07812C8.88672 9.5 8.75 9.36328 8.75 9.17188V8.07812ZM8.75 11.5781C8.75 11.4141 8.88672 11.25 9.07812 11.25H10.1719C10.3359 11.25 10.5 11.4141 10.5 11.5781V12.6719C10.5 12.8633 10.3359 13 10.1719 13H9.07812C8.88672 13 8.75 12.8633 8.75 12.6719V11.5781ZM5.25 8.07812C5.25 7.91406 5.38672 7.75 5.57812 7.75H6.67188C6.83594 7.75 7 7.91406 7 8.07812V9.17188C7 9.36328 6.83594 9.5 6.67188 9.5H5.57812C5.38672 9.5 5.25 9.36328 5.25 9.17188V8.07812ZM5.25 11.5781C5.25 11.4141 5.38672 11.25 5.57812 11.25H6.67188C6.83594 11.25 7 11.4141 7 11.5781V12.6719C7 12.8633 6.83594 13 6.67188 13H5.57812C5.38672 13 5.25 12.8633 5.25 12.6719V11.5781ZM1.75 8.07812C1.75 7.91406 1.88672 7.75 2.07812 7.75H3.17188C3.33594 7.75 3.5 7.91406 3.5 8.07812V9.17188C3.5 9.36328 3.33594 9.5 3.17188 9.5H2.07812C1.88672 9.5 1.75 9.36328 1.75 9.17188V8.07812ZM1.75 11.5781C1.75 11.4141 1.88672 11.25 2.07812 11.25H3.17188C3.33594 11.25 3.5 11.4141 3.5 11.5781V12.6719C3.5 12.8633 3.33594 13 3.17188 13H2.07812C1.88672 13 1.75 12.8633 1.75 12.6719V11.5781ZM10.9375 2.5H9.625V1.1875C9.625 0.96875 9.40625 0.75 9.1875 0.75H8.3125C8.06641 0.75 7.875 0.96875 7.875 1.1875V2.5H4.375V1.1875C4.375 0.96875 4.15625 0.75 3.9375 0.75H3.0625C2.81641 0.75 2.625 0.96875 2.625 1.1875V2.5H1.3125C0.574219 2.5 0 3.10156 0 3.8125V5.125H12.25V3.8125C12.25 3.10156 11.6484 2.5 10.9375 2.5Z"/>
</svg>
