<svg xmlns="http://www.w3.org/2000/svg" width="32" height="32" viewBox="0 0 200 200">
  <path class="cls-1" d="M13,178L179,12s11.312-.687,8,9L98,111s25.812,19.312,32,18c0,0,6.563-13.688,11-16h32s13.063,5.063,14,15v46s-6.187,16.062-23,13c0,0-59.438.812-101-42L22,187S10.5,190.75,13,178Zm36-56a4.681,4.681,0,0,1-4,2s-4.633-.929-15-19c0,0-18.05-34.971-18-68,0,0-2.907-21.981,18-25H69s15.51,1.769,18,16V59s-1.99,6.353-17,11L81,92s0.01,5.269-4,7H71S56.76,78.353,56,68V66s3.593-5.481,19-11V28s-2.74-3.231-4-3H28s-5.49,4.1-3,17c0,0-.047,40.973,27,74C52,116,51.875,121.25,49,122Z"/>
</svg>
