<svg version="1.0" xmlns="http://www.w3.org/2000/svg"
 width="128.000000pt" height="128.000000pt" viewBox="0 0 128.000000 128.000000"
 preserveAspectRatio="xMidYMid meet">
  <g transform="translate(0.000000,128.000000) scale(0.100000,-0.100000)">
    <path d="M220 1241 c0 -28 -10 -51 -23 -51 -6 0 -21 10 -34 22 l-24 22 -46
-47 -47 -46 22 -24 c12 -13 22 -28 22 -34 0 -13 -23 -23 -51 -23 -17 0 -19 -8
-19 -60 0 -52 2 -60 19 -60 28 0 51 -10 51 -23 0 -6 -10 -21 -22 -34 l-22 -23
29 -30 29 -30 0 -161 c1 -145 -1 -162 -18 -177 -56 -50 -82 -181 -54 -273 16
-55 73 -118 132 -145 95 -44 240 -23 299 44 17 19 26 20 130 15 70 -4 134 -1
170 6 73 16 179 69 237 119 39 34 43 41 31 56 -19 23 -27 21 -79 -23 -93 -77
-189 -111 -316 -111 -109 0 -120 5 -106 46 l10 29 108 0 c96 0 113 3 166 28
71 33 133 82 167 131 18 26 31 36 52 36 l27 0 0 -120 0 -120 -50 0 c-27 0 -50
-2 -50 -5 0 -10 113 -175 120 -175 7 0 120 165 120 175 0 3 -22 5 -50 5 l-50
0 0 120 0 119 78 3 77 3 0 215 0 215 -57 3 -57 3 -32 57 c-64 113 -188 208
-323 247 -48 14 -85 17 -180 12 l-121 -5 -32 31 -33 31 -23 -22 c-13 -12 -28
-22 -34 -22 -13 0 -23 23 -23 51 0 17 -8 19 -60 19 -52 0 -60 -2 -60 -19z m80
-44 c0 -49 46 -66 120 -46 10 3 14 -1 11 -11 -20 -74 -3 -120 46 -120 16 0 23
-6 23 -20 0 -14 -7 -20 -23 -20 -49 0 -66 -46 -46 -120 3 -10 -1 -14 -11 -11
-74 20 -120 3 -120 -46 0 -16 -6 -23 -20 -23 -14 0 -20 7 -20 23 0 49 -46 66
-120 46 -10 -3 -14 1 -11 11 2 8 6 29 9 46 l4 32 32 -36 c28 -30 40 -36 88
-40 104 -8 162 48 155 151 -3 49 -8 63 -35 90 -30 30 -37 32 -103 32 -68 0
-72 -1 -104 -36 l-33 -37 -4 32 c-3 17 -7 38 -9 46 -3 10 1 14 11 11 74 -20
120 -3 120 46 0 16 6 23 20 23 14 0 20 -7 20 -23z m547 -112 c82 -38 175 -120
212 -184 l22 -41 -38 0 c-32 0 -42 5 -62 36 -34 49 -96 98 -167 131 -53 25
-71 28 -179 30 -138 3 -165 7 -165 28 0 20 40 35 115 43 93 11 179 -3 262 -43z
m-502 -20 c58 -57 15 -155 -67 -155 -54 0 -88 35 -88 90 0 56 34 90 90 90 30
0 47 -6 65 -25z m456 -90 c28 -15 71 -45 96 -68 41 -38 43 -42 24 -49 -20 -7
-21 -14 -21 -218 0 -202 1 -211 20 -218 19 -7 18 -10 -19 -46 l-38 -38 -5 60
c-5 73 -39 127 -98 161 -44 24 -48 32 -25 51 8 7 15 21 15 31 0 13 7 19 23 19
40 0 47 18 47 118 0 94 0 94 -34 128 l-34 34 -106 0 -106 0 0 30 c0 31 7 35
70 42 49 6 141 -12 191 -37z m-82 -86 c36 -13 51 -35 51 -78 0 -29 -2 -31 -40
-31 -53 0 -110 25 -117 50 -3 11 -10 20 -17 20 -22 0 -39 -18 -33 -34 5 -12
-1 -20 -19 -26 -14 -6 -27 -10 -30 -10 -6 0 -5 56 2 75 15 39 132 59 203 34z
m501 -249 l0 -180 -140 0 -140 0 0 180 0 180 140 0 140 0 0 -180z m-1005 147
c4 -12 7 -73 8 -135 l2 -112 -29 -10 c-16 -6 -32 -7 -35 -4 -11 11 -5 229 7
257 14 33 40 35 47 4z m182 1 c22 -21 23 -21 43 -3 20 18 20 18 20 -41 0 -65
11 -84 47 -84 16 0 23 -6 23 -19 0 -10 7 -24 15 -31 22 -18 19 -22 -25 -48
-22 -12 -47 -33 -56 -47 l-15 -23 -52 24 c-29 13 -66 24 -83 24 -39 0 -44 11
-44 100 0 87 5 100 41 100 22 0 29 5 29 19 0 28 10 51 23 51 6 0 21 -10 34
-22z m279 -48 l37 0 -7 -47 c-8 -59 -16 -68 -66 -68 -50 0 -59 10 -67 72 -5
45 -3 52 13 55 11 3 27 1 36 -4 9 -4 33 -8 54 -8z m-416 -265 c0 -8 9 -15 20
-15 12 0 20 7 20 16 0 13 7 15 32 10 18 -3 43 -13 56 -22 19 -13 21 -18 11
-30 -18 -22 13 -53 35 -35 12 10 17 8 30 -11 9 -13 19 -38 22 -56 5 -25 3 -32
-10 -32 -9 0 -16 -8 -16 -20 0 -12 7 -20 16 -20 13 0 15 -7 10 -32 -3 -18 -13
-43 -22 -56 -13 -19 -18 -21 -30 -11 -22 18 -53 -13 -35 -35 10 -12 8 -17 -11
-30 -13 -9 -38 -19 -56 -22 -25 -5 -32 -3 -32 10 0 9 -8 16 -20 16 -12 0 -20
-7 -20 -16 0 -13 -7 -15 -32 -10 -18 3 -43 13 -56 22 -19 13 -21 18 -11 30 18
22 -13 53 -35 35 -12 -10 -17 -8 -30 11 -9 13 -19 38 -22 56 -5 25 -3 32 10
32 9 0 16 8 16 20 0 12 -7 20 -16 20 -13 0 -15 7 -10 32 3 18 13 43 22 56 13
19 18 21 30 11 21 -18 53 13 36 34 -14 16 -3 29 39 46 36 14 59 13 59 -4z
m534 -23 c8 -15 17 -52 21 -82 l7 -55 -36 -18 c-49 -23 -65 -22 -71 6 -30 132
-30 135 -7 114 26 -24 28 -22 42 28 13 48 22 49 44 7z"/>
    <path d="M177 382 c-16 -17 -15 -20 13 -47 21 -20 30 -38 30 -60 0 -40 16 -55
60 -55 44 0 60 15 60 55 0 19 8 39 20 50 19 17 19 19 3 37 -16 18 -17 18 -38
-2 -30 -28 -64 -25 -100 10 -30 29 -32 30 -48 12z"/>
  </g>
</svg>
