<?xml version="1.0" standalone="no"?>
<!DOCTYPE svg PUBLIC "-//W3C//DTD SVG 20010904//EN"
 "http://www.w3.org/TR/2001/REC-SVG-20010904/DTD/svg10.dtd">
<svg version="1.0" xmlns="http://www.w3.org/2000/svg"
 width="225.000000pt" height="225.000000pt" viewBox="0 0 225.000000 225.000000"
 preserveAspectRatio="xMidYMid meet">

<g transform="translate(0.000000,225.000000) scale(0.100000,-0.100000)"
fill="#000000" stroke="none">
<path d="M780 2181 c-75 -24 -139 -82 -167 -150 -23 -53 -19 -150 7 -202 51
-101 119 -144 230 -144 88 0 137 22 190 81 46 52 63 99 63 169 0 139 -99 243
-238 251 -33 2 -71 0 -85 -5z m173 -97 c88 -58 102 -190 29 -267 -38 -41 -74
-57 -126 -57 -80 0 -131 31 -167 102 -48 93 6 216 109 249 42 13 113 1 155
-27z"/>
<path d="M831 2066 c-7 -9 -11 -41 -9 -83 l3 -68 61 -3 c50 -2 63 0 68 14 9
24 -12 44 -45 44 -27 0 -29 2 -29 43 0 57 -24 83 -49 53z"/>
<path d="M1416 1818 c-80 -22 -148 -129 -132 -210 12 -59 53 -115 101 -138 64
-31 148 -25 199 14 68 52 95 151 62 229 -17 43 -76 93 -123 106 -44 13 -55 12
-107 -1z"/>
<path d="M1120 1440 c-84 -10 -171 -35 -240 -70 -54 -27 -97 -78 -200 -230
-23 -33 -116 -130 -126 -130 -2 0 -23 12 -45 27 -39 26 -40 26 -59 7 -29 -30
-160 -226 -160 -239 0 -17 346 -249 362 -243 17 7 168 231 168 251 0 8 -18 26
-40 41 -22 14 -40 29 -40 32 0 3 9 17 20 31 11 14 20 37 20 52 0 23 104 185
155 241 15 17 104 54 111 47 2 -2 -17 -42 -42 -90 -75 -144 -101 -244 -119
-462 -11 -122 -36 -188 -108 -285 -35 -47 -91 -115 -125 -153 -52 -56 -62 -73
-62 -103 0 -69 80 -116 141 -84 30 17 165 176 229 272 63 94 94 175 105 273
12 117 6 113 88 56 40 -28 87 -63 105 -78 l33 -28 -45 -155 c-25 -85 -52 -175
-60 -199 -24 -66 -21 -98 14 -133 27 -27 36 -30 73 -25 26 4 48 14 59 28 39
47 152 451 145 512 -7 55 -49 108 -133 173 -69 53 -72 57 -63 82 23 63 122
251 147 282 l28 33 46 -100 c52 -113 78 -143 122 -143 38 0 304 114 322 138 7
9 14 34 14 54 0 28 -6 41 -26 57 -38 30 -59 27 -170 -23 l-99 -44 -32 69 c-51
110 -105 159 -231 212 -117 48 -178 59 -282 47z m-452 -457 c9 -7 26 -13 39
-13 28 0 29 -10 5 -41 l-19 -22 -39 28 c-21 16 -43 32 -47 36 -5 4 -1 19 9 34
16 24 18 25 27 8 5 -10 17 -24 25 -30z"/>
</g>
</svg>
