<?xml version="1.0" encoding="utf-8"?>
<!-- Generator: Adobe Illustrator 16.0.0, SVG Export Plug-In . SVG Version: 6.00 Build 0)  -->
<!DOCTYPE svg PUBLIC "-//W3C//DTD SVG 1.1//EN" "http://www.w3.org/Graphics/SVG/1.1/DTD/svg11.dtd">
<svg version="1.1" id="Layer_1" xmlns="http://www.w3.org/2000/svg" xmlns:xlink="http://www.w3.org/1999/xlink" x="0px" y="0px"
	 width="128px" height="128px" viewBox="0 0 128 128" enable-background="new 0 0 128 128" xml:space="preserve">
<g>
	<g>
		<path d="M126.957,64.001c0-34.769-28.17-62.958-62.95-62.958c-34.774,0-62.964,28.189-62.964,62.958
			c0,34.773,28.189,62.956,62.958,62.956c13.935,0,27.19-4.544,38.055-12.791c1.314-0.995,1.569-2.889,0.566-4.203
			c-0.997-1.326-2.878-1.576-4.192-0.578c-9.835,7.467-21.819,11.567-34.429,11.567c-31.46,0-56.966-25.495-56.966-56.956
			s25.5-56.961,56.966-56.961c31.456,0,56.964,25.5,56.964,56.961c0,11.651-3.508,22.771-9.948,32.169
			c-0.938,1.364-0.596,3.228,0.783,4.169c1.369,0.934,3.227,0.599,4.166-0.78C123.094,89.168,126.957,76.871,126.957,64.001z"/>
		<path d="M61.002,75.999c0,1.653,1.339,2.99,2.999,2.99c1.654,0,3.003-1.337,3.003-2.99V31.02c0-1.654-1.349-3-3.003-3
			c-1.66,0-2.999,1.34-2.999,3V75.999L61.002,75.999z"/>
		<path d="M60.266,59.03c-1.09-1.249-2.988-1.367-4.234-0.279c-1.247,1.093-1.368,2.982-0.277,4.231L76.735,86.97
			c1.099,1.247,2.984,1.366,4.232,0.283c1.262-1.091,1.382-2.984,0.287-4.225L60.266,59.03z"/>
	</g>
	<path d="M106.763,85.215c10.043,0,18.184,8.139,18.184,18.184c0,10.041-8.141,18.181-18.184,18.181s-18.189-8.14-18.189-18.181
		C88.573,93.354,96.72,85.215,106.763,85.215z"/>
	<path fill="#FFFFFF" d="M108.343,103.387l6.13-6.135c0.432-0.425,0.432-1.133,0-1.569c-0.43-0.436-1.14-0.436-1.575,0l-6.135,6.124
		l-6.134-6.124c-0.426-0.436-1.133-0.436-1.57,0c-0.436,0.43-0.436,1.138-0.011,1.569l6.146,6.135l-6.146,6.146
		c-0.425,0.413-0.425,1.121,0,1.558c0.229,0.219,0.51,0.333,0.798,0.333c0.284,0,0.568-0.114,0.783-0.333l6.134-6.124l6.135,6.124
		c0.215,0.219,0.499,0.333,0.782,0.333s0.578-0.114,0.793-0.333c0.432-0.432,0.432-1.14,0-1.558L108.343,103.387z"/>
</g>
</svg>
