<?xml version="1.0" encoding="utf-8"?>
<!-- Generator: Adobe Illustrator 16.0.0, SVG Export Plug-In . SVG Version: 6.00 Build 0)  -->
<!DOCTYPE svg PUBLIC "-//W3C//DTD SVG 1.1//EN" "http://www.w3.org/Graphics/SVG/1.1/DTD/svg11.dtd">
<svg version="1.1" id="Layer_1" xmlns="http://www.w3.org/2000/svg" xmlns:xlink="http://www.w3.org/1999/xlink" x="0px" y="0px"
	 width="31px" height="24px" viewBox="0 0 31 24" enable-background="new 0 0 31 24" xml:space="preserve">
<g>
	<g>
		<path d="M26.354,12c0-5.994-4.857-10.854-10.853-10.854C9.506,1.146,4.646,6.006,4.646,12c0,5.995,4.86,10.854,10.854,10.854
			c2.402,0,4.687-0.783,6.56-2.206c0.227-0.172,0.271-0.497,0.098-0.724c-0.172-0.228-0.496-0.272-0.723-0.1
			c-1.695,1.287-3.761,1.995-5.935,1.995c-5.424,0-9.821-4.396-9.821-9.82s4.396-9.82,9.821-9.82c5.423,0,9.82,4.396,9.82,9.82
			c0,2.009-0.604,3.926-1.715,5.546c-0.162,0.235-0.102,0.557,0.135,0.718c0.236,0.162,0.557,0.104,0.719-0.134
			C25.688,16.339,26.354,14.219,26.354,12z"/>
		<path d="M14.983,14.068c0,0.285,0.231,0.516,0.517,0.516c0.285,0,0.517-0.23,0.517-0.516V6.314c0-0.285-0.232-0.517-0.517-0.517
			c-0.286,0-0.517,0.231-0.517,0.517V14.068L14.983,14.068z"/>
		<path d="M14.856,11.143c-0.188-0.215-0.515-0.236-0.73-0.048c-0.215,0.188-0.236,0.514-0.048,0.729l3.618,4.136
			c0.189,0.215,0.514,0.236,0.729,0.049c0.217-0.188,0.238-0.515,0.049-0.729L14.856,11.143z"/>
	</g>
	<circle cx="22.872" cy="18.792" r="3.135"/>
	<path fill="#FFFFFF" d="M23.144,18.79l1.057-1.057c0.075-0.074,0.075-0.196,0-0.271c-0.074-0.075-0.196-0.075-0.271,0l-1.058,1.056
		l-1.058-1.056c-0.073-0.075-0.195-0.075-0.27,0c-0.075,0.074-0.075,0.196-0.002,0.271l1.059,1.057l-1.059,1.059
		c-0.073,0.072-0.073,0.194,0,0.269c0.039,0.038,0.088,0.058,0.137,0.058s0.098-0.02,0.135-0.058l1.058-1.056l1.058,1.056
		c0.037,0.038,0.086,0.058,0.134,0.058c0.05,0,0.1-0.02,0.137-0.058c0.074-0.074,0.074-0.196,0-0.269L23.144,18.79z"/>
</g>
</svg>
