<svg class="svg-icon" style="width: 1em; height: 1em;vertical-align: middle;fill: currentColor;overflow: hidden;" viewBox="0 0 1024 1024" version="1.1" xmlns="http://www.w3.org/2000/svg"><path d="M320 96c-140.992 0-256 115.008-256 256 0 94.4 51.648 176.608 128 220.992V864h704V224h-160V192h-64v32h-131.008C496.64 147.648 414.4 96 320 96z m0 64c106.432 0 192 85.568 192 192s-85.568 192-192 192-192-85.568-192-192 85.568-192 192-192zM288 224v146.016L232.992 424.96 279.04 471.04l64-64 8.992-10.016V224H288z m279.008 64H672v32h64V288h96v64h-256c0-22.24-3.616-43.392-8.992-64z m0 128H832v384H256v-200.992A251.904 251.904 0 0 0 320 608c118.752 0 218.304-82.016 247.008-192zM576 544v64h64v-64h-64z m128 0v64h64v-64h-64z m-384 128v64h64v-64h-64z m128 0v64h64v-64h-64z m128 0v64h64v-64h-64z m128 0v64h64v-64h-64z"  /></svg>