<svg version="1.0" xmlns="http://www.w3.org/2000/svg"
 viewBox="0 0 128.000000 128.000000"
 preserveAspectRatio="xMidYMid meet">
  <g transform="translate(0.000000,128.000000) scale(0.100000,-0.100000)">
    <path d="M339 1226 c-113 -40 -182 -142 -183 -267 0 -54 6 -78 30 -128 17 -33
27 -61 23 -61 -21 0 -120 -107 -149 -161 -53 -100 -60 -142 -60 -367 l0 -203
528 3 527 3 47 23 c60 30 120 90 150 150 27 57 36 172 18 238 -24 85 -123 190
-196 208 -15 4 -40 22 -58 39 -17 18 -44 42 -59 53 l-28 20 28 49 c25 44 28
60 28 135 0 68 -5 93 -22 125 -29 54 -88 109 -143 134 -53 24 -155 27 -213 6
-33 -11 -44 -11 -73 1 -41 17 -147 18 -195 0z m205 -103 c105 -74 119 -208 33
-298 -71 -73 -157 -83 -246 -28 -63 39 -94 100 -89 175 5 76 40 127 110 162
67 35 133 31 192 -11z m270 0 c105 -74 119 -208 33 -298 -42 -43 -92 -65 -149
-65 -39 0 -41 12 -12 65 48 85 43 209 -10 288 -29 42 -22 48 49 42 33 -3 63
-14 89 -32z m-479 -428 c55 -19 155 -19 206 2 39 15 43 15 76 -2 18 -10 52
-38 74 -63 l41 -44 -20 -21 c-50 -55 -67 -107 -67 -207 0 -103 17 -153 73
-213 l26 -27 -333 0 -333 0 4 168 c5 184 16 231 77 314 31 43 107 107 126 108
6 0 28 -7 50 -15z m732 -124 c111 -57 162 -192 112 -301 -42 -93 -117 -144
-214 -144 -114 -1 -210 75 -235 187 -42 188 165 347 337 258z"/>
    <path d="M920 455 l0 -55 -55 0 -55 0 0 -40 0 -40 55 0 55 0 0 -55 0 -55 40 0
40 0 0 55 0 55 55 0 55 0 0 40 0 40 -55 0 -55 0 0 55 0 55 -40 0 -40 0 0 -55z"/>
  </g>
</svg>
