<svg width="31" height="24" viewBox="0 0 31 24" xmlns="http://www.w3.org/2000/svg">
<path d="M1 6.59375C1 7.41406 1.58594 8 2.40625 8H23.5V10.8125C23.5 12.1016 24.9648 12.6875 25.8438 11.8086L30.5312 7.12109C31.1172 6.59375 31.1172 5.71484 30.5312 5.1875L25.8438 0.5C24.9648 -0.4375 23.5 0.207031 23.5 1.4375V4.25H2.40625C1.58594 4.25 1 4.89453 1 5.65625V6.59375ZM29.5938 15.5H8.5V12.6875C8.5 11.457 6.97656 10.8125 6.09766 11.75L1.41016 16.4375C0.824219 16.9648 0.824219 17.8438 1.41016 18.3711L6.09766 23.0586C6.97656 23.9375 8.5 23.3516 8.5 22.0625V19.25H29.5938C30.3555 19.25 31 18.6641 31 17.8438V16.9062C31 16.1445 30.3555 15.5 29.5938 15.5Z"/>
</svg>
