<svg version="1.0" xmlns="http://www.w3.org/2000/svg"
 viewBox="0 0 128.000000 128.000000"
 preserveAspectRatio="xMidYMid meet">
<metadata>
Created by potrace 1.16, written by Peter Selinger 2001-2019
</metadata>
<g transform="translate(0.000000,128.000000) scale(0.100000,-0.100000)">
<path d="M620 1135 l-145 -145 -94 0 -94 0 -119 -117 -118 -117 0 -378 0 -378
590 0 591 0 -3 153 c-3 144 -4 152 -23 152 -19 0 -20 -8 -23 -127 l-3 -128
-539 0 -540 0 0 325 0 325 540 0 540 0 0 -125 0 -125 25 0 25 0 0 153 0 153
-118 117 c-84 82 -126 117 -142 117 l-24 0 27 28 c15 15 27 36 27 46 0 27
-189 216 -215 216 -13 0 -72 -51 -165 -145z m213 -167 l-98 -98 -96 0 c-89 0
-97 2 -119 25 l-24 26 144 144 145 145 72 -72 73 -73 -97 -97z m-413 -50 c0
-6 7 -20 17 -30 15 -17 14 -18 -30 -18 -43 0 -47 -2 -47 -24 0 -13 7 -27 16
-30 20 -8 508 -8 528 0 9 3 16 17 16 30 0 22 -4 24 -47 24 l-47 0 29 30 c23
24 37 30 70 30 38 0 46 -6 125 -85 l85 -85 -495 0 -495 0 85 85 85 85 52 0
c34 0 53 -4 53 -12z"/>
<path d="M550 584 c-46 -20 -87 -60 -112 -108 -31 -61 -23 -170 17 -227 87
-124 283 -124 370 0 25 36 30 54 33 115 4 82 -13 129 -65 178 -59 56 -167 75
-243 42z m171 -67 c103 -69 107 -209 7 -275 -109 -72 -248 7 -248 141 0 119
144 200 241 134z"/>
<path d="M655 420 l-39 -40 -21 20 c-19 17 -55 28 -55 16 0 -2 -3 -11 -6 -19
-8 -21 53 -87 80 -87 29 0 141 113 133 134 -11 28 -51 18 -92 -24z"/>
</g>
</svg>
