<svg version="1.0" xmlns="http://www.w3.org/2000/svg"
 viewBox="0 0 128.000000 128.000000"
 preserveAspectRatio="xMidYMid meet">
  <metadata> Created by potrace 1.16, written by Peter Selinger 2001-2019 </metadata>
  <g transform="translate(0.000000,128.000000) scale(0.100000,-0.100000)">
    <path d="M422 1250 c-114 -58 -172 -153 -172 -286 0 -70 4 -89 30 -142 17 -33
46 -74 65 -90 l33 -30 -74 -36 c-139 -69 -253 -215 -289 -370 -11 -45 -15
-104 -13 -179 l3 -112 560 0 560 0 3 123 c1 70 7 122 12 122 22 0 95 78 116
125 42 90 27 211 -36 287 -85 103 -262 119 -374 34 -28 -21 -34 -22 -64 -9
l-32 13 34 31 c19 17 49 58 66 91 26 53 30 72 30 143 0 71 -4 90 -30 143 -58
114 -153 172 -286 172 -70 0 -89 -4 -142 -30z m221 -66 c32 -11 61 -31 90 -64
92 -102 89 -218 -8 -315 -97 -97 -213 -100 -315 -8 -103 92 -106 234 -7 331
69 68 150 87 240 56z m442 -533 c82 -37 128 -128 105 -206 -17 -56 -45 -92
-90 -115 -137 -70 -299 54 -260 199 20 76 101 141 175 141 17 0 48 -9 70 -19z
m-356 -37 c32 -13 40 -20 35 -33 -4 -9 -9 -44 -12 -79 -11 -145 88 -261 236
-280 l57 -7 3 -68 3 -67 -486 0 -485 0 0 53 c0 310 249 540 546 505 33 -4 80
-14 103 -24z"/>
    <path d="M982 588 c-7 -7 -12 -22 -12 -35 0 -18 -6 -23 -24 -23 -30 0 -49 -22
-44 -52 2 -18 10 -24 36 -26 24 -3 32 -8 32 -23 0 -34 19 -59 45 -59 26 0 45
25 45 59 0 15 8 20 33 23 25 2 33 8 35 26 5 30 -14 52 -44 52 -18 0 -24 5 -24
23 0 29 -18 47 -45 47 -12 0 -26 -5 -33 -12z"/>
  </g>
</svg>
